<svg width="67" height="24" viewBox="0 0 67 24" fill="none" xmlns="http://www.w3.org/2000/svg">
<mask id="mask0_11_12" style="mask-type:alpha" maskUnits="userSpaceOnUse" x="0" y="6" width="66" height="13">
<path d="M0.527969 12.368C0.527969 11.2587 0.767969 10.272 1.24797 9.408C1.72797 8.53333 2.39464 7.856 3.24797 7.376C4.11197 6.88533 5.08797 6.64 6.17597 6.64C7.5093 6.64 8.65064 6.992 9.59997 7.696C10.5493 8.4 11.184 9.36 11.504 10.576H8.49597C8.27197 10.1067 7.95197 9.74933 7.53597 9.504C7.13064 9.25867 6.66664 9.136 6.14397 9.136C5.3013 9.136 4.61864 9.42933 4.09597 10.016C3.5733 10.6027 3.31197 11.3867 3.31197 12.368C3.31197 13.3493 3.5733 14.1333 4.09597 14.72C4.61864 15.3067 5.3013 15.6 6.14397 15.6C6.66664 15.6 7.13064 15.4773 7.53597 15.232C7.95197 14.9867 8.27197 14.6293 8.49597 14.16H11.504C11.184 15.376 10.5493 16.336 9.59997 17.04C8.65064 17.7333 7.5093 18.08 6.17597 18.08C5.08797 18.08 4.11197 17.84 3.24797 17.36C2.39464 16.8693 1.72797 16.192 1.24797 15.328C0.767969 14.464 0.527969 13.4773 0.527969 12.368Z" fill="black"/>
<path d="M34.728 6.16V18H31.992V6.16H34.728ZM39.4468 10.336C39.7028 9.92 40.0708 9.584 40.5508 9.328C41.0308 9.072 41.5801 8.944 42.1988 8.944C42.9348 8.944 43.6014 9.13067 44.1988 9.504C44.7961 9.87733 45.2654 10.4107 45.6068 11.104C45.9588 11.7973 46.1348 12.6027 46.1348 13.52C46.1348 14.4373 45.9588 15.248 45.6068 15.952C45.2654 16.6453 44.7961 17.184 44.1988 17.568C43.6014 17.9413 42.9348 18.128 42.1988 18.128C41.5694 18.128 41.0201 18.0053 40.5508 17.76C40.0814 17.504 39.7134 17.168 39.4468 16.752V18H36.7108V6.16H39.4468V10.336ZM43.3508 13.52C43.3508 12.8373 43.1588 12.304 42.7748 11.92C42.4014 11.5253 41.9374 11.328 41.3828 11.328C40.8388 11.328 40.3748 11.5253 39.9908 11.92C39.6174 12.3147 39.4308 12.8533 39.4308 13.536C39.4308 14.2187 39.6174 14.7573 39.9908 15.152C40.3748 15.5467 40.8388 15.744 41.3828 15.744C41.9268 15.744 42.3908 15.5467 42.7748 15.152C43.1588 14.7467 43.3508 14.2027 43.3508 13.52ZM55.9861 13.392C55.9861 13.648 55.9701 13.9147 55.9381 14.192H49.7461C49.7888 14.7467 49.9648 15.1733 50.2741 15.472C50.5941 15.76 50.9835 15.904 51.4421 15.904C52.1248 15.904 52.5995 15.616 52.8661 15.04H55.7781C55.6288 15.6267 55.3568 16.1547 54.9621 16.624C54.5781 17.0933 54.0928 17.4613 53.5061 17.728C52.9195 17.9947 52.2635 18.128 51.5381 18.128C50.6635 18.128 49.8848 17.9413 49.2021 17.568C48.5195 17.1947 47.9861 16.6613 47.6021 15.968C47.2181 15.2747 47.0261 14.464 47.0261 13.536C47.0261 12.608 47.2128 11.7973 47.5861 11.104C47.9701 10.4107 48.5035 9.87733 49.1861 9.504C49.8688 9.13067 50.6528 8.944 51.5381 8.944C52.4021 8.944 53.1701 9.12533 53.8421 9.488C54.5141 9.85067 55.0368 10.368 55.4101 11.04C55.7941 11.712 55.9861 12.496 55.9861 13.392ZM53.1861 12.672C53.1861 12.2027 53.0261 11.8293 52.7061 11.552C52.3861 11.2747 51.9861 11.136 51.5061 11.136C51.0475 11.136 50.6581 11.2693 50.3381 11.536C50.0288 11.8027 49.8368 12.1813 49.7621 12.672H53.1861ZM65.8455 13.392C65.8455 13.648 65.8295 13.9147 65.7975 14.192H59.6055C59.6482 14.7467 59.8242 15.1733 60.1335 15.472C60.4535 15.76 60.8428 15.904 61.3015 15.904C61.9842 15.904 62.4588 15.616 62.7255 15.04H65.6375C65.4882 15.6267 65.2162 16.1547 64.8215 16.624C64.4375 17.0933 63.9522 17.4613 63.3655 17.728C62.7788 17.9947 62.1228 18.128 61.3975 18.128C60.5228 18.128 59.7442 17.9413 59.0615 17.568C58.3788 17.1947 57.8455 16.6613 57.4615 15.968C57.0775 15.2747 56.8855 14.464 56.8855 13.536C56.8855 12.608 57.0722 11.7973 57.4455 11.104C57.8295 10.4107 58.3628 9.87733 59.0455 9.504C59.7282 9.13067 60.5122 8.944 61.3975 8.944C62.2615 8.944 63.0295 9.12533 63.7015 9.488C64.3735 9.85067 64.8962 10.368 65.2695 11.04C65.6535 11.712 65.8455 12.496 65.8455 13.392ZM63.0455 12.672C63.0455 12.2027 62.8855 11.8293 62.5655 11.552C62.2455 11.2747 61.8455 11.136 61.3655 11.136C60.9068 11.136 60.5175 11.2693 60.1975 11.536C59.8882 11.8027 59.6962 12.1813 59.6215 12.672H63.0455Z" fill="black"/>
<path fill-rule="evenodd" clip-rule="evenodd" d="M31 13.5C31 15.9853 28.9853 18 26.5 18C24.0147 18 22 15.9853 22 13.5C22 11.0147 24.0147 9 26.5 9C28.9853 9 31 11.0147 31 13.5ZM27.4 11.7C27.4 12.197 26.997 12.6 26.5 12.6C26.0029 12.6 25.6 12.197 25.6 11.7C25.6 11.2029 26.0029 10.8 26.5 10.8C26.997 10.8 27.4 11.2029 27.4 11.7ZM28.3001 14.4C28.7971 14.4 29.2001 13.997 29.2001 13.5C29.2001 13.0029 28.7971 12.6 28.3001 12.6C27.803 12.6 27.4001 13.0029 27.4001 13.5C27.4001 13.997 27.803 14.4 28.3001 14.4ZM27.4 15.3C27.4 15.7971 26.997 16.2 26.5 16.2C26.0029 16.2 25.6 15.7971 25.6 15.3C25.6 14.803 26.0029 14.4 26.5 14.4C26.997 14.4 27.4 14.803 27.4 15.3ZM24.7 14.4C25.197 14.4 25.6 13.997 25.6 13.5C25.6 13.0029 25.197 12.6 24.7 12.6C24.2029 12.6 23.8 13.0029 23.8 13.5C23.8 13.997 24.2029 14.4 24.7 14.4Z" fill="black"/>
<rect x="26" y="16.5" width="5" height="1.5" fill="black"/>
<path fill-rule="evenodd" clip-rule="evenodd" d="M21 13.5C21 15.9853 18.9853 18 16.5 18C14.0147 18 12 15.9853 12 13.5C12 11.0147 14.0147 9 16.5 9C18.9853 9 21 11.0147 21 13.5ZM17.4 11.7C17.4 12.197 16.9971 12.6 16.5 12.6C16.0029 12.6 15.6 12.197 15.6 11.7C15.6 11.2029 16.0029 10.8 16.5 10.8C16.9971 10.8 17.4 11.2029 17.4 11.7ZM18.3 14.4C18.7971 14.4 19.2 13.997 19.2 13.5C19.2 13.0029 18.7971 12.6 18.3 12.6C17.8029 12.6 17.4 13.0029 17.4 13.5C17.4 13.997 17.8029 14.4 18.3 14.4ZM17.4 15.3C17.4 15.7971 16.9971 16.2 16.5 16.2C16.0029 16.2 15.6 15.7971 15.6 15.3C15.6 14.803 16.0029 14.4 16.5 14.4C16.9971 14.4 17.4 14.803 17.4 15.3ZM14.7 14.4C15.197 14.4 15.6 13.997 15.6 13.5C15.6 13.0029 15.197 12.6 14.7 12.6C14.2029 12.6 13.8 13.0029 13.8 13.5C13.8 13.997 14.2029 14.4 14.7 14.4Z" fill="black"/>
<rect x="16" y="16.5" width="5" height="1.5" fill="black"/>
</mask>
<g mask="url(#mask0_11_12)">
<rect x="-4" width="73" height="24" fill="#F6C90E"/>
</g>
</svg>
